<mxfile host="" modified="2020-07-02T16:09:55.025Z" agent="5.0 (Macintosh; Intel Mac OS X 10_15_5) AppleWebKit/537.36 (KHTML, like Gecko) Code/1.46.1 Chrome/78.0.3904.130 Electron/7.3.1 Safari/537.36" etag="2quVO50vz_LAAhOybB94" version="13.1.3">
    <diagram id="6hGFLwfOUW9BJ-s0fimq" name="Page-1">
        <mxGraphModel dx="1618" dy="837" grid="1" gridSize="10" guides="1" tooltips="1" connect="1" arrows="1" fold="1" page="1" pageScale="1" pageWidth="827" pageHeight="1169" math="0" shadow="0">
            <root>
                <mxCell id="0"/>
                <mxCell id="1" parent="0"/>
                <mxCell id="155" value="" style="edgeStyle=none;rounded=0;orthogonalLoop=1;jettySize=auto;html=1;" parent="1" source="153" target="118" edge="1">
                    <mxGeometry relative="1" as="geometry"/>
                </mxCell>
                <mxCell id="242" value="&lt;font style=&quot;font-size: 12px&quot;&gt;push Helm dev artifacts separately&lt;/font&gt;" style="edgeStyle=orthogonalEdgeStyle;rounded=1;orthogonalLoop=1;jettySize=auto;html=1;exitX=0.5;exitY=0;exitDx=0;exitDy=0;entryX=0.55;entryY=0.95;entryDx=0;entryDy=0;entryPerimeter=0;fillColor=#1ba1e2;strokeColor=#3FB1E5;" parent="1" source="153" target="148" edge="1">
                    <mxGeometry x="-0.7961" y="-30" relative="1" as="geometry">
                        <Array as="points">
                            <mxPoint x="1300" y="210"/>
                            <mxPoint x="2097" y="210"/>
                        </Array>
                        <mxPoint x="30" y="-30" as="offset"/>
                    </mxGeometry>
                </mxCell>
                <mxCell id="153" value="" style="rounded=1;whiteSpace=wrap;html=1;fillColor=#049B4A;strokeColor=#F0F0F0;" parent="1" vertex="1">
                    <mxGeometry x="1230" y="310" width="140" height="780" as="geometry"/>
                </mxCell>
                <mxCell id="240" value="&lt;font style=&quot;font-size: 12px&quot;&gt;push Docker&amp;nbsp;dev artifacts&amp;nbsp;separately&lt;/font&gt;" style="edgeStyle=orthogonalEdgeStyle;rounded=1;orthogonalLoop=1;jettySize=auto;html=1;exitX=0.5;exitY=0;exitDx=0;exitDy=0;entryX=0.55;entryY=0.95;entryDx=0;entryDy=0;entryPerimeter=0;fillColor=#0050ef;strokeColor=#2496ed;" parent="1" source="151" target="146" edge="1">
                    <mxGeometry x="0.1683" relative="1" as="geometry">
                        <mxPoint x="1486" y="140" as="targetPoint"/>
                        <Array as="points">
                            <mxPoint x="1140" y="170"/>
                            <mxPoint x="1486" y="170"/>
                            <mxPoint x="1486" y="126"/>
                            <mxPoint x="1486" y="126"/>
                        </Array>
                        <mxPoint as="offset"/>
                    </mxGeometry>
                </mxCell>
                <mxCell id="151" value="" style="rounded=1;whiteSpace=wrap;html=1;fillColor=#049B4A;strokeColor=#F0F0F0;" parent="1" vertex="1">
                    <mxGeometry x="1070" y="310" width="140" height="780" as="geometry"/>
                </mxCell>
                <mxCell id="3" value="feature_branch" style="verticalLabelPosition=bottom;html=1;verticalAlign=top;align=center;strokeColor=none;fillColor=#00BEF2;shape=mxgraph.azure.git_repository;" parent="1" vertex="1">
                    <mxGeometry x="20" y="235" width="50" height="50" as="geometry"/>
                </mxCell>
                <mxCell id="4" value="master_branch" style="verticalLabelPosition=bottom;html=1;verticalAlign=top;align=center;strokeColor=none;fillColor=#00BEF2;shape=mxgraph.azure.git_repository;" parent="1" vertex="1">
                    <mxGeometry x="20" y="675" width="50" height="50" as="geometry"/>
                </mxCell>
                <mxCell id="31" style="rounded=0;orthogonalLoop=1;jettySize=auto;html=1;exitX=0.75;exitY=0;exitDx=0;exitDy=0;entryX=0;entryY=0.5;entryDx=0;entryDy=0;" parent="1" source="8" target="14" edge="1">
                    <mxGeometry relative="1" as="geometry"/>
                </mxCell>
                <mxCell id="32" value="" style="edgeStyle=orthogonalEdgeStyle;rounded=0;orthogonalLoop=1;jettySize=auto;html=1;" parent="1" source="8" target="10" edge="1">
                    <mxGeometry relative="1" as="geometry"/>
                </mxCell>
                <mxCell id="33" style="orthogonalLoop=1;jettySize=auto;html=1;exitX=0.75;exitY=1;exitDx=0;exitDy=0;entryX=0;entryY=0.5;entryDx=0;entryDy=0;rounded=0;" parent="1" source="8" target="24" edge="1">
                    <mxGeometry relative="1" as="geometry"/>
                </mxCell>
                <mxCell id="8" value="checkout" style="rounded=1;whiteSpace=wrap;html=1;fillColor=#049B4A;" parent="1" vertex="1">
                    <mxGeometry x="120" y="240" width="120" height="40" as="geometry"/>
                </mxCell>
                <mxCell id="34" value="" style="edgeStyle=none;rounded=0;orthogonalLoop=1;jettySize=auto;html=1;exitX=1;exitY=0.5;exitDx=0;exitDy=0;" parent="1" source="10" target="12" edge="1">
                    <mxGeometry relative="1" as="geometry"/>
                </mxCell>
                <mxCell id="40" style="edgeStyle=none;rounded=0;orthogonalLoop=1;jettySize=auto;html=1;exitX=1;exitY=0.5;exitDx=0;exitDy=0;entryX=0;entryY=1;entryDx=0;entryDy=0;" parent="1" source="10" target="18" edge="1">
                    <mxGeometry relative="1" as="geometry"/>
                </mxCell>
                <mxCell id="41" style="edgeStyle=none;rounded=0;orthogonalLoop=1;jettySize=auto;html=1;exitX=1;exitY=0.5;exitDx=0;exitDy=0;entryX=0;entryY=0.75;entryDx=0;entryDy=0;" parent="1" source="10" target="16" edge="1">
                    <mxGeometry relative="1" as="geometry"/>
                </mxCell>
                <mxCell id="43" style="edgeStyle=none;rounded=0;orthogonalLoop=1;jettySize=auto;html=1;exitX=1;exitY=0.5;exitDx=0;exitDy=0;entryX=0;entryY=0;entryDx=0;entryDy=0;" parent="1" source="10" target="27" edge="1">
                    <mxGeometry relative="1" as="geometry"/>
                </mxCell>
                <mxCell id="44" style="edgeStyle=none;rounded=0;orthogonalLoop=1;jettySize=auto;html=1;exitX=1;exitY=0.5;exitDx=0;exitDy=0;entryX=0;entryY=0;entryDx=0;entryDy=0;" parent="1" source="10" target="26" edge="1">
                    <mxGeometry relative="1" as="geometry"/>
                </mxCell>
                <mxCell id="45" style="edgeStyle=none;rounded=0;orthogonalLoop=1;jettySize=auto;html=1;exitX=1;exitY=0.5;exitDx=0;exitDy=0;entryX=0;entryY=0.25;entryDx=0;entryDy=0;" parent="1" source="10" target="20" edge="1">
                    <mxGeometry relative="1" as="geometry"/>
                </mxCell>
                <mxCell id="10" value="install_dependencies" style="rounded=1;whiteSpace=wrap;html=1;fillColor=#049B4A;" parent="1" vertex="1">
                    <mxGeometry x="280" y="240" width="120" height="40" as="geometry"/>
                </mxCell>
                <mxCell id="35" style="edgeStyle=none;rounded=0;orthogonalLoop=1;jettySize=auto;html=1;exitX=1;exitY=0.5;exitDx=0;exitDy=0;entryX=0;entryY=0.5;entryDx=0;entryDy=0;" parent="1" source="12" target="22" edge="1">
                    <mxGeometry relative="1" as="geometry"/>
                </mxCell>
                <mxCell id="36" style="edgeStyle=none;rounded=0;orthogonalLoop=1;jettySize=auto;html=1;exitX=1;exitY=0.5;exitDx=0;exitDy=0;entryX=0;entryY=0.5;entryDx=0;entryDy=0;" parent="1" source="12" target="28" edge="1">
                    <mxGeometry relative="1" as="geometry"/>
                </mxCell>
                <mxCell id="12" value="build" style="rounded=1;whiteSpace=wrap;html=1;fillColor=#049B4A;" parent="1" vertex="1">
                    <mxGeometry x="500" y="210" width="120" height="40" as="geometry"/>
                </mxCell>
                <mxCell id="14" value="audit" style="rounded=1;whiteSpace=wrap;html=1;fillColor=#049B4A;" parent="1" vertex="1">
                    <mxGeometry x="280" y="160" width="120" height="40" as="geometry"/>
                </mxCell>
                <mxCell id="16" value="lint" style="rounded=1;whiteSpace=wrap;html=1;fillColor=#049B4A;" parent="1" vertex="1">
                    <mxGeometry x="500" y="150" width="120" height="40" as="geometry"/>
                </mxCell>
                <mxCell id="18" value="depchecker" style="rounded=1;whiteSpace=wrap;html=1;fillColor=#049B4A;" parent="1" vertex="1">
                    <mxGeometry x="500" y="90" width="120" height="40" as="geometry"/>
                </mxCell>
                <mxCell id="20" value="license_checker" style="rounded=1;whiteSpace=wrap;html=1;fillColor=#049B4A;" parent="1" vertex="1">
                    <mxGeometry x="500" y="270" width="120" height="40" as="geometry"/>
                </mxCell>
                <mxCell id="22" value="tests" style="rounded=1;whiteSpace=wrap;html=1;fillColor=#049B4A;" parent="1" vertex="1">
                    <mxGeometry x="660" y="180" width="120" height="40" as="geometry"/>
                </mxCell>
                <mxCell id="24" value="helm_checks" style="rounded=1;whiteSpace=wrap;html=1;fillColor=#049B4A;" parent="1" vertex="1">
                    <mxGeometry x="280" y="320" width="120" height="40" as="geometry"/>
                </mxCell>
                <mxCell id="26" value="yarn_checks" style="rounded=1;whiteSpace=wrap;html=1;fillColor=#049B4A;" parent="1" vertex="1">
                    <mxGeometry x="500" y="330" width="120" height="40" as="geometry"/>
                </mxCell>
                <mxCell id="27" value="monorepo_checks" style="rounded=1;whiteSpace=wrap;html=1;fillColor=#049B4A;" parent="1" vertex="1">
                    <mxGeometry x="500" y="390" width="120" height="40" as="geometry"/>
                </mxCell>
                <mxCell id="28" value="is_git_clean" style="rounded=1;whiteSpace=wrap;html=1;fillColor=#049B4A;" parent="1" vertex="1">
                    <mxGeometry x="660" y="240" width="120" height="40" as="geometry"/>
                </mxCell>
                <mxCell id="48" value="" style="edgeStyle=none;rounded=0;orthogonalLoop=1;jettySize=auto;html=1;" parent="1" source="46" target="47" edge="1">
                    <mxGeometry relative="1" as="geometry"/>
                </mxCell>
                <mxCell id="250" value="&lt;font style=&quot;font-size: 12px&quot;&gt;check previous running pipeline&lt;br&gt;if step prerelease not started cancel previous pipeline&lt;/font&gt;" style="edgeStyle=orthogonalEdgeStyle;curved=1;orthogonalLoop=1;jettySize=auto;html=1;exitX=0.5;exitY=1;exitDx=0;exitDy=0;entryX=0.5;entryY=1;entryDx=0;entryDy=0;dashed=1;startArrow=classic;startFill=1;strokeColor=#FFFF33;" parent="1" source="46" target="55" edge="1">
                    <mxGeometry relative="1" as="geometry">
                        <Array as="points">
                            <mxPoint x="180" y="920"/>
                            <mxPoint x="980" y="920"/>
                        </Array>
                    </mxGeometry>
                </mxCell>
                <mxCell id="46" value="cancel_previous" style="rounded=1;whiteSpace=wrap;html=1;fillColor=#049B4A;" parent="1" vertex="1">
                    <mxGeometry x="120" y="680" width="120" height="40" as="geometry"/>
                </mxCell>
                <mxCell id="50" value="" style="edgeStyle=none;rounded=0;orthogonalLoop=1;jettySize=auto;html=1;" parent="1" source="47" target="49" edge="1">
                    <mxGeometry relative="1" as="geometry"/>
                </mxCell>
                <mxCell id="47" value="checkout" style="rounded=1;whiteSpace=wrap;html=1;fillColor=#049B4A;" parent="1" vertex="1">
                    <mxGeometry x="280" y="680" width="120" height="40" as="geometry"/>
                </mxCell>
                <mxCell id="52" value="" style="edgeStyle=none;rounded=0;orthogonalLoop=1;jettySize=auto;html=1;" parent="1" source="49" target="51" edge="1">
                    <mxGeometry relative="1" as="geometry"/>
                </mxCell>
                <mxCell id="49" value="dependencies" style="rounded=1;whiteSpace=wrap;html=1;fillColor=#049B4A;" parent="1" vertex="1">
                    <mxGeometry x="440" y="680" width="120" height="40" as="geometry"/>
                </mxCell>
                <mxCell id="54" value="" style="edgeStyle=none;rounded=0;orthogonalLoop=1;jettySize=auto;html=1;" parent="1" source="51" target="53" edge="1">
                    <mxGeometry relative="1" as="geometry"/>
                </mxCell>
                <mxCell id="51" value="build" style="rounded=1;whiteSpace=wrap;html=1;fillColor=#049B4A;" parent="1" vertex="1">
                    <mxGeometry x="600" y="680" width="120" height="40" as="geometry"/>
                </mxCell>
                <mxCell id="56" value="" style="edgeStyle=none;rounded=0;orthogonalLoop=1;jettySize=auto;html=1;" parent="1" source="53" target="55" edge="1">
                    <mxGeometry relative="1" as="geometry"/>
                </mxCell>
                <mxCell id="53" value="tests" style="rounded=1;whiteSpace=wrap;html=1;fillColor=#049B4A;" parent="1" vertex="1">
                    <mxGeometry x="760" y="680" width="120" height="40" as="geometry"/>
                </mxCell>
                <mxCell id="154" value="" style="edgeStyle=none;rounded=0;orthogonalLoop=1;jettySize=auto;html=1;" parent="1" source="55" target="151" edge="1">
                    <mxGeometry relative="1" as="geometry"/>
                </mxCell>
                <mxCell id="237" value="&lt;font style=&quot;font-size: 12px&quot;&gt;push NPM dev artifacts&amp;nbsp;separately&lt;/font&gt;" style="edgeStyle=orthogonalEdgeStyle;rounded=1;orthogonalLoop=1;jettySize=auto;html=1;exitX=0.5;exitY=0;exitDx=0;exitDy=0;entryX=0.16;entryY=0.55;entryDx=0;entryDy=0;entryPerimeter=0;fillColor=#e51400;strokeColor=#cb3837;" parent="1" source="55" target="144" edge="1">
                    <mxGeometry x="-0.0997" y="-60" relative="1" as="geometry">
                        <Array as="points">
                            <mxPoint x="980" y="260"/>
                        </Array>
                        <mxPoint as="offset"/>
                    </mxGeometry>
                </mxCell>
                <mxCell id="55" value="prerelease" style="rounded=1;whiteSpace=wrap;html=1;fillColor=#049B4A;" parent="1" vertex="1">
                    <mxGeometry x="920" y="680" width="120" height="40" as="geometry"/>
                </mxCell>
                <mxCell id="110" value="" style="edgeStyle=none;rounded=0;orthogonalLoop=1;jettySize=auto;html=1;" parent="1" source="57" target="88" edge="1">
                    <mxGeometry relative="1" as="geometry"/>
                </mxCell>
                <mxCell id="57" value="docker_job-role" style="rounded=1;whiteSpace=wrap;html=1;fillColor=#049B4A;" parent="1" vertex="1">
                    <mxGeometry x="1080" y="680" width="120" height="40" as="geometry"/>
                </mxCell>
                <mxCell id="109" value="" style="edgeStyle=none;rounded=0;orthogonalLoop=1;jettySize=auto;html=1;" parent="1" source="59" target="89" edge="1">
                    <mxGeometry relative="1" as="geometry"/>
                </mxCell>
                <mxCell id="59" value="docker_company" style="rounded=1;whiteSpace=wrap;html=1;fillColor=#049B4A;" parent="1" vertex="1">
                    <mxGeometry x="1080" y="630" width="120" height="40" as="geometry"/>
                </mxCell>
                <mxCell id="108" value="" style="edgeStyle=none;rounded=0;orthogonalLoop=1;jettySize=auto;html=1;" parent="1" source="60" target="90" edge="1">
                    <mxGeometry relative="1" as="geometry"/>
                </mxCell>
                <mxCell id="60" value="docker_candidate" style="rounded=1;whiteSpace=wrap;html=1;fillColor=#049B4A;" parent="1" vertex="1">
                    <mxGeometry x="1080" y="580" width="120" height="40" as="geometry"/>
                </mxCell>
                <mxCell id="107" value="" style="edgeStyle=none;rounded=0;orthogonalLoop=1;jettySize=auto;html=1;" parent="1" source="61" target="91" edge="1">
                    <mxGeometry relative="1" as="geometry"/>
                </mxCell>
                <mxCell id="61" value="docker_campaign" style="rounded=1;whiteSpace=wrap;html=1;fillColor=#049B4A;" parent="1" vertex="1">
                    <mxGeometry x="1080" y="530" width="120" height="40" as="geometry"/>
                </mxCell>
                <mxCell id="106" value="" style="edgeStyle=none;rounded=0;orthogonalLoop=1;jettySize=auto;html=1;" parent="1" source="62" target="92" edge="1">
                    <mxGeometry relative="1" as="geometry"/>
                </mxCell>
                <mxCell id="62" value="docker_gw_webhooks" style="rounded=1;whiteSpace=wrap;html=1;fillColor=#049B4A;" parent="1" vertex="1">
                    <mxGeometry x="1080" y="480" width="120" height="40" as="geometry"/>
                </mxCell>
                <mxCell id="105" value="" style="edgeStyle=none;rounded=0;orthogonalLoop=1;jettySize=auto;html=1;" parent="1" source="63" target="93" edge="1">
                    <mxGeometry relative="1" as="geometry"/>
                </mxCell>
                <mxCell id="63" value="docker_gw_student" style="rounded=1;whiteSpace=wrap;html=1;fillColor=#049B4A;" parent="1" vertex="1">
                    <mxGeometry x="1080" y="430" width="120" height="40" as="geometry"/>
                </mxCell>
                <mxCell id="104" value="" style="edgeStyle=none;rounded=0;orthogonalLoop=1;jettySize=auto;html=1;" parent="1" source="64" target="94" edge="1">
                    <mxGeometry relative="1" as="geometry"/>
                </mxCell>
                <mxCell id="64" value="docker_gw_recruiter" style="rounded=1;whiteSpace=wrap;html=1;fillColor=#049B4A;" parent="1" vertex="1">
                    <mxGeometry x="1080" y="380" width="120" height="40" as="geometry"/>
                </mxCell>
                <mxCell id="103" value="" style="edgeStyle=none;rounded=0;orthogonalLoop=1;jettySize=auto;html=1;" parent="1" source="65" target="95" edge="1">
                    <mxGeometry relative="1" as="geometry"/>
                </mxCell>
                <mxCell id="65" value="docker_gw_advisor" style="rounded=1;whiteSpace=wrap;html=1;fillColor=#049B4A;" parent="1" vertex="1">
                    <mxGeometry x="1080" y="330" width="120" height="40" as="geometry"/>
                </mxCell>
                <mxCell id="115" value="" style="edgeStyle=none;rounded=0;orthogonalLoop=1;jettySize=auto;html=1;" parent="1" source="66" target="96" edge="1">
                    <mxGeometry relative="1" as="geometry"/>
                </mxCell>
                <mxCell id="66" value="docker_skill" style="rounded=1;whiteSpace=wrap;html=1;fillColor=#049B4A;" parent="1" vertex="1">
                    <mxGeometry x="1080" y="930" width="120" height="40" as="geometry"/>
                </mxCell>
                <mxCell id="111" value="" style="edgeStyle=none;rounded=0;orthogonalLoop=1;jettySize=auto;html=1;" parent="1" source="67" target="97" edge="1">
                    <mxGeometry relative="1" as="geometry"/>
                </mxCell>
                <mxCell id="67" value="docker_location" style="rounded=1;whiteSpace=wrap;html=1;fillColor=#049B4A;" parent="1" vertex="1">
                    <mxGeometry x="1080" y="730" width="120" height="40" as="geometry"/>
                </mxCell>
                <mxCell id="112" value="" style="edgeStyle=none;rounded=0;orthogonalLoop=1;jettySize=auto;html=1;" parent="1" source="68" target="98" edge="1">
                    <mxGeometry relative="1" as="geometry"/>
                </mxCell>
                <mxCell id="68" value="docker_major" style="rounded=1;whiteSpace=wrap;html=1;fillColor=#049B4A;" parent="1" vertex="1">
                    <mxGeometry x="1080" y="780" width="120" height="40" as="geometry"/>
                </mxCell>
                <mxCell id="113" value="" style="edgeStyle=none;rounded=0;orthogonalLoop=1;jettySize=auto;html=1;" parent="1" source="69" target="99" edge="1">
                    <mxGeometry relative="1" as="geometry"/>
                </mxCell>
                <mxCell id="69" value="docker_notifier" style="rounded=1;whiteSpace=wrap;html=1;fillColor=#049B4A;" parent="1" vertex="1">
                    <mxGeometry x="1080" y="830" width="120" height="40" as="geometry"/>
                </mxCell>
                <mxCell id="114" value="" style="edgeStyle=none;rounded=0;orthogonalLoop=1;jettySize=auto;html=1;" parent="1" source="70" target="100" edge="1">
                    <mxGeometry relative="1" as="geometry"/>
                </mxCell>
                <mxCell id="70" value="docker_program" style="rounded=1;whiteSpace=wrap;html=1;fillColor=#049B4A;" parent="1" vertex="1">
                    <mxGeometry x="1080" y="880" width="120" height="40" as="geometry"/>
                </mxCell>
                <mxCell id="116" value="" style="edgeStyle=none;rounded=0;orthogonalLoop=1;jettySize=auto;html=1;" parent="1" source="71" target="101" edge="1">
                    <mxGeometry relative="1" as="geometry"/>
                </mxCell>
                <mxCell id="71" value="docker_university" style="rounded=1;whiteSpace=wrap;html=1;fillColor=#049B4A;" parent="1" vertex="1">
                    <mxGeometry x="1080" y="980" width="120" height="40" as="geometry"/>
                </mxCell>
                <mxCell id="117" value="" style="edgeStyle=none;rounded=0;orthogonalLoop=1;jettySize=auto;html=1;" parent="1" source="72" target="102" edge="1">
                    <mxGeometry relative="1" as="geometry"/>
                </mxCell>
                <mxCell id="72" value="docker_user" style="rounded=1;whiteSpace=wrap;html=1;fillColor=#049B4A;" parent="1" vertex="1">
                    <mxGeometry x="1080" y="1030" width="120" height="40" as="geometry"/>
                </mxCell>
                <mxCell id="88" value="helm_job-role" style="rounded=1;whiteSpace=wrap;html=1;fillColor=#049B4A;" parent="1" vertex="1">
                    <mxGeometry x="1241" y="680" width="120" height="40" as="geometry"/>
                </mxCell>
                <mxCell id="121" value="" style="edgeStyle=none;rounded=0;orthogonalLoop=1;jettySize=auto;html=1;exitX=1;exitY=0.5;exitDx=0;exitDy=0;entryX=0;entryY=0.5;entryDx=0;entryDy=0;" parent="1" source="118" target="120" edge="1">
                    <mxGeometry relative="1" as="geometry"/>
                </mxCell>
                <mxCell id="123" style="edgeStyle=none;rounded=0;orthogonalLoop=1;jettySize=auto;html=1;exitX=1;exitY=0.5;exitDx=0;exitDy=0;entryX=0;entryY=0.5;entryDx=0;entryDy=0;" parent="1" source="118" target="122" edge="1">
                    <mxGeometry relative="1" as="geometry"/>
                </mxCell>
                <mxCell id="244" value="&lt;font style=&quot;font-size: 12px&quot;&gt;push Umbrella Helm dev artifact&amp;nbsp;&lt;/font&gt;" style="edgeStyle=orthogonalEdgeStyle;rounded=1;orthogonalLoop=1;jettySize=auto;html=1;exitX=0.5;exitY=0;exitDx=0;exitDy=0;fillColor=#1ba1e2;strokeColor=#3FB1E5;" parent="1" source="118" edge="1">
                    <mxGeometry relative="1" as="geometry">
                        <mxPoint x="2100" y="130" as="targetPoint"/>
                        <Array as="points">
                            <mxPoint x="1460" y="340"/>
                            <mxPoint x="2100" y="340"/>
                        </Array>
                    </mxGeometry>
                </mxCell>
                <mxCell id="118" value="helm_umbrella" style="rounded=1;whiteSpace=wrap;html=1;fillColor=#049B4A;" parent="1" vertex="1">
                    <mxGeometry x="1400" y="680" width="120" height="40" as="geometry"/>
                </mxCell>
                <mxCell id="172" style="edgeStyle=none;rounded=0;orthogonalLoop=1;jettySize=auto;html=1;exitX=0.5;exitY=0;exitDx=0;exitDy=0;dashed=1;strokeColor=#049B4A;" parent="1" source="120" target="161" edge="1">
                    <mxGeometry relative="1" as="geometry"/>
                </mxCell>
                <mxCell id="248" value="&lt;font style=&quot;font-size: 12px&quot;&gt;get exact Umbrella Helm dev artifact and push it to dev&amp;nbsp;&lt;/font&gt;" style="edgeStyle=orthogonalEdgeStyle;orthogonalLoop=1;jettySize=auto;html=1;exitX=0.5;exitY=0;exitDx=0;exitDy=0;entryX=0.13;entryY=0.77;entryDx=0;entryDy=0;entryPerimeter=0;strokeColor=#049B4A;dashed=1;curved=1;startArrow=classic;startFill=1;" parent="1" source="120" target="148" edge="1">
                    <mxGeometry x="-0.2065" y="-10" relative="1" as="geometry">
                        <Array as="points">
                            <mxPoint x="1620" y="470"/>
                            <mxPoint x="1520" y="470"/>
                            <mxPoint x="1520" y="360"/>
                            <mxPoint x="2008" y="360"/>
                        </Array>
                        <mxPoint as="offset"/>
                    </mxGeometry>
                </mxCell>
                <mxCell id="120" value="deploy_dev" style="rounded=1;whiteSpace=wrap;html=1;fillColor=#049B4A;" parent="1" vertex="1">
                    <mxGeometry x="1560" y="630" width="120" height="40" as="geometry"/>
                </mxCell>
                <mxCell id="89" value="helm_company" style="rounded=1;whiteSpace=wrap;html=1;fillColor=#049B4A;" parent="1" vertex="1">
                    <mxGeometry x="1241" y="630" width="120" height="40" as="geometry"/>
                </mxCell>
                <mxCell id="90" value="helm_candidate" style="rounded=1;whiteSpace=wrap;html=1;fillColor=#049B4A;" parent="1" vertex="1">
                    <mxGeometry x="1241" y="580" width="120" height="40" as="geometry"/>
                </mxCell>
                <mxCell id="91" value="helm_campaign" style="rounded=1;whiteSpace=wrap;html=1;fillColor=#049B4A;" parent="1" vertex="1">
                    <mxGeometry x="1241" y="530" width="120" height="40" as="geometry"/>
                </mxCell>
                <mxCell id="92" value="helm_gw_webhooks" style="rounded=1;whiteSpace=wrap;html=1;fillColor=#049B4A;" parent="1" vertex="1">
                    <mxGeometry x="1241" y="480" width="120" height="40" as="geometry"/>
                </mxCell>
                <mxCell id="93" value="helm_gw_student" style="rounded=1;whiteSpace=wrap;html=1;fillColor=#049B4A;" parent="1" vertex="1">
                    <mxGeometry x="1241" y="430" width="120" height="40" as="geometry"/>
                </mxCell>
                <mxCell id="94" value="helm_gw_recruiter" style="rounded=1;whiteSpace=wrap;html=1;fillColor=#049B4A;" parent="1" vertex="1">
                    <mxGeometry x="1241" y="380" width="120" height="40" as="geometry"/>
                </mxCell>
                <mxCell id="95" value="helm_gw_advisor" style="rounded=1;whiteSpace=wrap;html=1;fillColor=#049B4A;" parent="1" vertex="1">
                    <mxGeometry x="1241" y="330" width="120" height="40" as="geometry"/>
                </mxCell>
                <mxCell id="96" value="helm_skill" style="rounded=1;whiteSpace=wrap;html=1;fillColor=#049B4A;" parent="1" vertex="1">
                    <mxGeometry x="1241" y="930" width="120" height="40" as="geometry"/>
                </mxCell>
                <mxCell id="97" value="helm_location" style="rounded=1;whiteSpace=wrap;html=1;fillColor=#049B4A;" parent="1" vertex="1">
                    <mxGeometry x="1241" y="730" width="120" height="40" as="geometry"/>
                </mxCell>
                <mxCell id="98" value="helm_major" style="rounded=1;whiteSpace=wrap;html=1;fillColor=#049B4A;" parent="1" vertex="1">
                    <mxGeometry x="1241" y="780" width="120" height="40" as="geometry"/>
                </mxCell>
                <mxCell id="99" value="helm_notifier" style="rounded=1;whiteSpace=wrap;html=1;fillColor=#049B4A;" parent="1" vertex="1">
                    <mxGeometry x="1241" y="830" width="120" height="40" as="geometry"/>
                </mxCell>
                <mxCell id="100" value="helm_program" style="rounded=1;whiteSpace=wrap;html=1;fillColor=#049B4A;" parent="1" vertex="1">
                    <mxGeometry x="1241" y="880" width="120" height="40" as="geometry"/>
                </mxCell>
                <mxCell id="101" value="helm_university" style="rounded=1;whiteSpace=wrap;html=1;fillColor=#049B4A;" parent="1" vertex="1">
                    <mxGeometry x="1241" y="980" width="120" height="40" as="geometry"/>
                </mxCell>
                <mxCell id="102" value="helm_user" style="rounded=1;whiteSpace=wrap;html=1;fillColor=#049B4A;" parent="1" vertex="1">
                    <mxGeometry x="1241" y="1030" width="120" height="40" as="geometry"/>
                </mxCell>
                <mxCell id="125" value="" style="edgeStyle=none;rounded=0;orthogonalLoop=1;jettySize=auto;html=1;" parent="1" source="122" target="124" edge="1">
                    <mxGeometry relative="1" as="geometry"/>
                </mxCell>
                <mxCell id="173" style="edgeStyle=none;orthogonalLoop=1;jettySize=auto;html=1;exitX=0.5;exitY=0;exitDx=0;exitDy=0;entryX=0.477;entryY=0.989;entryDx=0;entryDy=0;entryPerimeter=0;dashed=1;strokeColor=#049B4A;curved=1;" parent="1" source="122" edge="1">
                    <mxGeometry relative="1" as="geometry">
                        <Array as="points">
                            <mxPoint x="1788" y="620"/>
                        </Array>
                        <mxPoint x="1788.0127400000001" y="469.00999999999976" as="targetPoint"/>
                    </mxGeometry>
                </mxCell>
                <mxCell id="249" value="&lt;span style=&quot;font-size: 12px&quot;&gt;get exact Umbrella Helm dev artifact and push it to temp dev-test&amp;nbsp;&lt;/span&gt;" style="edgeStyle=orthogonalEdgeStyle;orthogonalLoop=1;jettySize=auto;html=1;exitX=0.5;exitY=0;exitDx=0;exitDy=0;entryX=0.31;entryY=0.8;entryDx=0;entryDy=0;entryPerimeter=0;dashed=1;strokeColor=#049B4A;startArrow=classic;startFill=1;curved=1;" parent="1" source="122" target="148" edge="1">
                    <mxGeometry x="-0.2913" y="40" relative="1" as="geometry">
                        <Array as="points">
                            <mxPoint x="1620" y="670"/>
                            <mxPoint x="2046" y="670"/>
                        </Array>
                        <mxPoint as="offset"/>
                    </mxGeometry>
                </mxCell>
                <mxCell id="122" value="deploy_test_stage" style="rounded=1;whiteSpace=wrap;html=1;fillColor=#049B4A;" parent="1" vertex="1">
                    <mxGeometry x="1560" y="730" width="120" height="40" as="geometry"/>
                </mxCell>
                <mxCell id="127" value="" style="edgeStyle=none;rounded=0;orthogonalLoop=1;jettySize=auto;html=1;" parent="1" source="124" target="126" edge="1">
                    <mxGeometry relative="1" as="geometry"/>
                </mxCell>
                <mxCell id="124" value="run_tests" style="rounded=1;whiteSpace=wrap;html=1;fillColor=#049B4A;" parent="1" vertex="1">
                    <mxGeometry x="1720" y="730" width="120" height="40" as="geometry"/>
                </mxCell>
                <mxCell id="129" value="" style="edgeStyle=none;rounded=0;orthogonalLoop=1;jettySize=auto;html=1;" parent="1" source="126" target="128" edge="1">
                    <mxGeometry relative="1" as="geometry"/>
                </mxCell>
                <mxCell id="126" value="pending_approval" style="rounded=1;whiteSpace=wrap;html=1;fillColor=#049B4A;" parent="1" vertex="1">
                    <mxGeometry x="1880" y="730" width="120" height="40" as="geometry"/>
                </mxCell>
                <mxCell id="230" style="edgeStyle=none;rounded=0;orthogonalLoop=1;jettySize=auto;html=1;exitX=1;exitY=0.5;exitDx=0;exitDy=0;entryX=0;entryY=0.5;entryDx=0;entryDy=0;" parent="1" source="128" target="183" edge="1">
                    <mxGeometry relative="1" as="geometry">
                        <mxPoint x="2151" y="750" as="sourcePoint"/>
                    </mxGeometry>
                </mxCell>
                <mxCell id="238" value="&lt;font style=&quot;font-size: 12px&quot;&gt;push NPM&amp;nbsp;dev artifacts&amp;nbsp;separately&lt;/font&gt;" style="edgeStyle=orthogonalEdgeStyle;rounded=1;orthogonalLoop=1;jettySize=auto;html=1;exitX=0.25;exitY=0;exitDx=0;exitDy=0;entryX=0.875;entryY=0.5;entryDx=0;entryDy=0;entryPerimeter=0;fillColor=#e51400;strokeColor=#cb3837;" parent="1" source="128" target="144" edge="1">
                    <mxGeometry x="0.0541" y="130" relative="1" as="geometry">
                        <Array as="points">
                            <mxPoint x="2070" y="255"/>
                        </Array>
                        <mxPoint x="-130" y="-130" as="offset"/>
                    </mxGeometry>
                </mxCell>
                <mxCell id="128" value="release" style="rounded=1;whiteSpace=wrap;html=1;fillColor=#049B4A;" parent="1" vertex="1">
                    <mxGeometry x="2040" y="730" width="120" height="40" as="geometry"/>
                </mxCell>
                <mxCell id="135" value="" style="edgeStyle=none;rounded=0;orthogonalLoop=1;jettySize=auto;html=1;entryX=0;entryY=0.5;entryDx=0;entryDy=0;exitX=1;exitY=0.5;exitDx=0;exitDy=0;" parent="1" source="232" target="134" edge="1">
                    <mxGeometry relative="1" as="geometry">
                        <mxPoint x="2989" y="749.9999999999998" as="sourcePoint"/>
                    </mxGeometry>
                </mxCell>
                <mxCell id="176" style="edgeStyle=none;rounded=0;orthogonalLoop=1;jettySize=auto;html=1;exitX=1;exitY=0.5;exitDx=0;exitDy=0;entryX=0;entryY=0.5;entryDx=0;entryDy=0;" parent="1" source="232" target="136" edge="1">
                    <mxGeometry relative="1" as="geometry">
                        <mxPoint x="2989" y="749.9999999999998" as="sourcePoint"/>
                    </mxGeometry>
                </mxCell>
                <mxCell id="175" style="edgeStyle=none;rounded=0;orthogonalLoop=1;jettySize=auto;html=1;" parent="1" source="134" target="168" edge="1">
                    <mxGeometry relative="1" as="geometry"/>
                </mxCell>
                <mxCell id="134" value="deploy_stage" style="rounded=1;whiteSpace=wrap;html=1;fillColor=#049B4A;" parent="1" vertex="1">
                    <mxGeometry x="2700.81" y="687.5" width="120" height="40" as="geometry"/>
                </mxCell>
                <mxCell id="139" value="" style="edgeStyle=none;rounded=0;orthogonalLoop=1;jettySize=auto;html=1;" parent="1" source="136" target="138" edge="1">
                    <mxGeometry relative="1" as="geometry"/>
                </mxCell>
                <mxCell id="177" style="edgeStyle=none;rounded=0;orthogonalLoop=1;jettySize=auto;html=1;exitX=1;exitY=0;exitDx=0;exitDy=0;entryX=0.64;entryY=0.989;entryDx=0;entryDy=0;entryPerimeter=0;" parent="1" source="136" target="167" edge="1">
                    <mxGeometry relative="1" as="geometry"/>
                </mxCell>
                <mxCell id="136" value="deploy_test_prod" style="rounded=1;whiteSpace=wrap;html=1;fillColor=#049B4A;" parent="1" vertex="1">
                    <mxGeometry x="2700" y="767.5" width="120" height="40" as="geometry"/>
                </mxCell>
                <mxCell id="141" value="" style="edgeStyle=none;rounded=0;orthogonalLoop=1;jettySize=auto;html=1;" parent="1" source="138" target="140" edge="1">
                    <mxGeometry relative="1" as="geometry"/>
                </mxCell>
                <mxCell id="138" value="run_tests" style="rounded=1;whiteSpace=wrap;html=1;fillColor=#049B4A;" parent="1" vertex="1">
                    <mxGeometry x="2859.19" y="767.5" width="120" height="40" as="geometry"/>
                </mxCell>
                <mxCell id="143" value="" style="edgeStyle=none;rounded=0;orthogonalLoop=1;jettySize=auto;html=1;" parent="1" source="140" target="142" edge="1">
                    <mxGeometry relative="1" as="geometry"/>
                </mxCell>
                <mxCell id="140" value="pending_approval" style="rounded=1;whiteSpace=wrap;html=1;fillColor=#049B4A;" parent="1" vertex="1">
                    <mxGeometry x="3019.19" y="767.5" width="120" height="40" as="geometry"/>
                </mxCell>
                <mxCell id="180" style="edgeStyle=none;rounded=0;orthogonalLoop=1;jettySize=auto;html=1;exitX=0.5;exitY=0;exitDx=0;exitDy=0;" parent="1" source="142" target="162" edge="1">
                    <mxGeometry relative="1" as="geometry"/>
                </mxCell>
                <mxCell id="142" value="deploy_prod" style="rounded=1;whiteSpace=wrap;html=1;fillColor=#049B4A;" parent="1" vertex="1">
                    <mxGeometry x="3179.19" y="767.5" width="120" height="40" as="geometry"/>
                </mxCell>
                <mxCell id="144" value="&lt;font style=&quot;font-size: 15px&quot;&gt;NPM Registry&lt;/font&gt;" style="ellipse;shape=cloud;whiteSpace=wrap;html=1;strokeColor=#cb3837;fillColor=#cb3837;fontColor=#ffffff;" parent="1" vertex="1">
                    <mxGeometry x="1460" y="210" width="210" height="90" as="geometry"/>
                </mxCell>
                <mxCell id="146" value="&lt;font style=&quot;font-size: 15px&quot;&gt;Docker Registry (ACR)&lt;/font&gt;" style="ellipse;shape=cloud;whiteSpace=wrap;html=1;fillColor=#2496ed;strokeColor=#2496ed;fontColor=#ffffff;" parent="1" vertex="1">
                    <mxGeometry x="1370" y="40" width="210" height="90" as="geometry"/>
                </mxCell>
                <mxCell id="148" value="&lt;font style=&quot;font-size: 15px&quot;&gt;Helm Registry (ACR)&lt;/font&gt;" style="ellipse;shape=cloud;whiteSpace=wrap;html=1;strokeColor=#3FB1E5;fillColor=#3FB1E5;" parent="1" vertex="1">
                    <mxGeometry x="1981" y="40" width="210" height="90" as="geometry"/>
                </mxCell>
                <mxCell id="161" value="&lt;font style=&quot;font-size: 15px&quot;&gt;Dev&lt;/font&gt;" style="aspect=fixed;html=1;points=[];align=center;image;fontSize=12;image=img/lib/mscae/Kubernetes_Services.svg;fillColor=#0078d4;" parent="1" vertex="1">
                    <mxGeometry x="1560" y="380" width="121.62" height="90" as="geometry"/>
                </mxCell>
                <mxCell id="162" value="&lt;font style=&quot;font-size: 15px&quot;&gt;Prod&lt;/font&gt;" style="aspect=fixed;html=1;points=[];align=center;image;fontSize=12;image=img/lib/mscae/Kubernetes_Services.svg;fillColor=none;" parent="1" vertex="1">
                    <mxGeometry x="3177.57" y="402.5" width="121.62" height="90" as="geometry"/>
                </mxCell>
                <mxCell id="164" value="&lt;font style=&quot;font-size: 15px&quot;&gt;Test Stage (Temp)&lt;br&gt;Will be removed after testing&lt;/font&gt;" style="aspect=fixed;html=1;points=[];align=center;image;fontSize=12;image=img/lib/mscae/Kubernetes_Services.svg;fillColor=none;" parent="1" vertex="1">
                    <mxGeometry x="1758.38" y="365" width="121.62" height="90" as="geometry"/>
                </mxCell>
                <mxCell id="167" value="&lt;font style=&quot;font-size: 15px&quot;&gt;Test Prod (Temp)&lt;br&gt;Will be removed after testing&lt;/font&gt;" style="aspect=fixed;html=1;points=[];align=center;image;fontSize=12;image=img/lib/mscae/Kubernetes_Services.svg;fillColor=none;" parent="1" vertex="1">
                    <mxGeometry x="2890" y="402.5" width="121.62" height="90" as="geometry"/>
                </mxCell>
                <mxCell id="168" value="&lt;font style=&quot;font-size: 15px&quot;&gt;Stage&lt;/font&gt;" style="aspect=fixed;html=1;points=[];align=center;image;fontSize=12;image=img/lib/mscae/Kubernetes_Services.svg;fillColor=none;" parent="1" vertex="1">
                    <mxGeometry x="2700" y="392.5" width="121.62" height="90" as="geometry"/>
                </mxCell>
                <mxCell id="234" value="" style="edgeStyle=none;rounded=0;orthogonalLoop=1;jettySize=auto;html=1;" parent="1" source="182" target="232" edge="1">
                    <mxGeometry relative="1" as="geometry"/>
                </mxCell>
                <mxCell id="243" value="&lt;font style=&quot;font-size: 12px&quot;&gt;push Helm stable artifacts&amp;nbsp;separately&lt;/font&gt;" style="edgeStyle=orthogonalEdgeStyle;rounded=1;orthogonalLoop=1;jettySize=auto;html=1;exitX=0.5;exitY=0;exitDx=0;exitDy=0;entryX=0.55;entryY=0.95;entryDx=0;entryDy=0;entryPerimeter=0;fillColor=#1ba1e2;strokeColor=#3FB1E5;" parent="1" source="182" target="148" edge="1">
                    <mxGeometry relative="1" as="geometry">
                        <Array as="points">
                            <mxPoint x="2421" y="210"/>
                            <mxPoint x="2097" y="210"/>
                        </Array>
                    </mxGeometry>
                </mxCell>
                <mxCell id="182" value="" style="rounded=1;whiteSpace=wrap;html=1;fillColor=#049B4A;strokeColor=#F0F0F0;" parent="1" vertex="1">
                    <mxGeometry x="2379" y="360" width="140" height="780" as="geometry"/>
                </mxCell>
                <mxCell id="241" value="&lt;font style=&quot;font-size: 12px&quot;&gt;push Docker stable artifacts&amp;nbsp;separately&lt;/font&gt;" style="edgeStyle=orthogonalEdgeStyle;rounded=1;orthogonalLoop=1;jettySize=auto;html=1;exitX=0.5;exitY=0;exitDx=0;exitDy=0;fillColor=#0050ef;strokeColor=#2496ed;" parent="1" source="183" edge="1">
                    <mxGeometry x="0.4291" relative="1" as="geometry">
                        <mxPoint x="1486" y="126" as="targetPoint"/>
                        <Array as="points">
                            <mxPoint x="2261" y="170"/>
                            <mxPoint x="1486" y="170"/>
                        </Array>
                        <mxPoint as="offset"/>
                    </mxGeometry>
                </mxCell>
                <mxCell id="183" value="" style="rounded=1;whiteSpace=wrap;html=1;fillColor=#049B4A;strokeColor=#F0F0F0;" parent="1" vertex="1">
                    <mxGeometry x="2219" y="360" width="140" height="780" as="geometry"/>
                </mxCell>
                <mxCell id="184" value="" style="edgeStyle=none;rounded=0;orthogonalLoop=1;jettySize=auto;html=1;" parent="1" source="185" target="214" edge="1">
                    <mxGeometry relative="1" as="geometry"/>
                </mxCell>
                <mxCell id="185" value="docker_job-role" style="rounded=1;whiteSpace=wrap;html=1;fillColor=#049B4A;" parent="1" vertex="1">
                    <mxGeometry x="2229" y="730" width="120" height="40" as="geometry"/>
                </mxCell>
                <mxCell id="186" value="" style="edgeStyle=none;rounded=0;orthogonalLoop=1;jettySize=auto;html=1;" parent="1" source="187" target="215" edge="1">
                    <mxGeometry relative="1" as="geometry"/>
                </mxCell>
                <mxCell id="187" value="docker_company" style="rounded=1;whiteSpace=wrap;html=1;fillColor=#049B4A;" parent="1" vertex="1">
                    <mxGeometry x="2229" y="680" width="120" height="40" as="geometry"/>
                </mxCell>
                <mxCell id="188" value="" style="edgeStyle=none;rounded=0;orthogonalLoop=1;jettySize=auto;html=1;" parent="1" source="189" target="216" edge="1">
                    <mxGeometry relative="1" as="geometry"/>
                </mxCell>
                <mxCell id="189" value="docker_candidate" style="rounded=1;whiteSpace=wrap;html=1;fillColor=#049B4A;" parent="1" vertex="1">
                    <mxGeometry x="2229" y="630" width="120" height="40" as="geometry"/>
                </mxCell>
                <mxCell id="190" value="" style="edgeStyle=none;rounded=0;orthogonalLoop=1;jettySize=auto;html=1;" parent="1" source="191" target="217" edge="1">
                    <mxGeometry relative="1" as="geometry"/>
                </mxCell>
                <mxCell id="191" value="docker_campaign" style="rounded=1;whiteSpace=wrap;html=1;fillColor=#049B4A;" parent="1" vertex="1">
                    <mxGeometry x="2229" y="580" width="120" height="40" as="geometry"/>
                </mxCell>
                <mxCell id="192" value="" style="edgeStyle=none;rounded=0;orthogonalLoop=1;jettySize=auto;html=1;" parent="1" source="193" target="218" edge="1">
                    <mxGeometry relative="1" as="geometry"/>
                </mxCell>
                <mxCell id="193" value="docker_gw_webhooks" style="rounded=1;whiteSpace=wrap;html=1;fillColor=#049B4A;" parent="1" vertex="1">
                    <mxGeometry x="2229" y="530" width="120" height="40" as="geometry"/>
                </mxCell>
                <mxCell id="194" value="" style="edgeStyle=none;rounded=0;orthogonalLoop=1;jettySize=auto;html=1;" parent="1" source="195" target="219" edge="1">
                    <mxGeometry relative="1" as="geometry"/>
                </mxCell>
                <mxCell id="195" value="docker_gw_student" style="rounded=1;whiteSpace=wrap;html=1;fillColor=#049B4A;" parent="1" vertex="1">
                    <mxGeometry x="2229" y="480" width="120" height="40" as="geometry"/>
                </mxCell>
                <mxCell id="196" value="" style="edgeStyle=none;rounded=0;orthogonalLoop=1;jettySize=auto;html=1;" parent="1" source="197" target="220" edge="1">
                    <mxGeometry relative="1" as="geometry"/>
                </mxCell>
                <mxCell id="197" value="docker_gw_recruiter" style="rounded=1;whiteSpace=wrap;html=1;fillColor=#049B4A;" parent="1" vertex="1">
                    <mxGeometry x="2229" y="430" width="120" height="40" as="geometry"/>
                </mxCell>
                <mxCell id="198" value="" style="edgeStyle=none;rounded=0;orthogonalLoop=1;jettySize=auto;html=1;" parent="1" source="199" target="221" edge="1">
                    <mxGeometry relative="1" as="geometry"/>
                </mxCell>
                <mxCell id="199" value="docker_gw_advisor" style="rounded=1;whiteSpace=wrap;html=1;fillColor=#049B4A;" parent="1" vertex="1">
                    <mxGeometry x="2229" y="380" width="120" height="40" as="geometry"/>
                </mxCell>
                <mxCell id="200" value="" style="edgeStyle=none;rounded=0;orthogonalLoop=1;jettySize=auto;html=1;" parent="1" source="201" target="222" edge="1">
                    <mxGeometry relative="1" as="geometry"/>
                </mxCell>
                <mxCell id="201" value="docker_skill" style="rounded=1;whiteSpace=wrap;html=1;fillColor=#049B4A;" parent="1" vertex="1">
                    <mxGeometry x="2229" y="980" width="120" height="40" as="geometry"/>
                </mxCell>
                <mxCell id="202" value="" style="edgeStyle=none;rounded=0;orthogonalLoop=1;jettySize=auto;html=1;" parent="1" source="203" target="223" edge="1">
                    <mxGeometry relative="1" as="geometry"/>
                </mxCell>
                <mxCell id="203" value="docker_location" style="rounded=1;whiteSpace=wrap;html=1;fillColor=#049B4A;" parent="1" vertex="1">
                    <mxGeometry x="2229" y="780" width="120" height="40" as="geometry"/>
                </mxCell>
                <mxCell id="204" value="" style="edgeStyle=none;rounded=0;orthogonalLoop=1;jettySize=auto;html=1;" parent="1" source="205" target="224" edge="1">
                    <mxGeometry relative="1" as="geometry"/>
                </mxCell>
                <mxCell id="205" value="docker_major" style="rounded=1;whiteSpace=wrap;html=1;fillColor=#049B4A;" parent="1" vertex="1">
                    <mxGeometry x="2229" y="830" width="120" height="40" as="geometry"/>
                </mxCell>
                <mxCell id="206" value="" style="edgeStyle=none;rounded=0;orthogonalLoop=1;jettySize=auto;html=1;" parent="1" source="207" target="225" edge="1">
                    <mxGeometry relative="1" as="geometry"/>
                </mxCell>
                <mxCell id="207" value="docker_notifier" style="rounded=1;whiteSpace=wrap;html=1;fillColor=#049B4A;" parent="1" vertex="1">
                    <mxGeometry x="2229" y="880" width="120" height="40" as="geometry"/>
                </mxCell>
                <mxCell id="208" value="" style="edgeStyle=none;rounded=0;orthogonalLoop=1;jettySize=auto;html=1;" parent="1" source="209" target="226" edge="1">
                    <mxGeometry relative="1" as="geometry"/>
                </mxCell>
                <mxCell id="209" value="docker_program" style="rounded=1;whiteSpace=wrap;html=1;fillColor=#049B4A;" parent="1" vertex="1">
                    <mxGeometry x="2229" y="930" width="120" height="40" as="geometry"/>
                </mxCell>
                <mxCell id="210" value="" style="edgeStyle=none;rounded=0;orthogonalLoop=1;jettySize=auto;html=1;" parent="1" source="211" target="227" edge="1">
                    <mxGeometry relative="1" as="geometry"/>
                </mxCell>
                <mxCell id="211" value="docker_university" style="rounded=1;whiteSpace=wrap;html=1;fillColor=#049B4A;" parent="1" vertex="1">
                    <mxGeometry x="2229" y="1030" width="120" height="40" as="geometry"/>
                </mxCell>
                <mxCell id="212" value="" style="edgeStyle=none;rounded=0;orthogonalLoop=1;jettySize=auto;html=1;" parent="1" source="213" target="228" edge="1">
                    <mxGeometry relative="1" as="geometry"/>
                </mxCell>
                <mxCell id="213" value="docker_user" style="rounded=1;whiteSpace=wrap;html=1;fillColor=#049B4A;" parent="1" vertex="1">
                    <mxGeometry x="2229" y="1080" width="120" height="40" as="geometry"/>
                </mxCell>
                <mxCell id="214" value="helm_job-role" style="rounded=1;whiteSpace=wrap;html=1;fillColor=#049B4A;" parent="1" vertex="1">
                    <mxGeometry x="2390" y="730" width="120" height="40" as="geometry"/>
                </mxCell>
                <mxCell id="215" value="helm_company" style="rounded=1;whiteSpace=wrap;html=1;fillColor=#049B4A;" parent="1" vertex="1">
                    <mxGeometry x="2390" y="680" width="120" height="40" as="geometry"/>
                </mxCell>
                <mxCell id="216" value="helm_candidate" style="rounded=1;whiteSpace=wrap;html=1;fillColor=#049B4A;" parent="1" vertex="1">
                    <mxGeometry x="2390" y="630" width="120" height="40" as="geometry"/>
                </mxCell>
                <mxCell id="217" value="helm_campaign" style="rounded=1;whiteSpace=wrap;html=1;fillColor=#049B4A;" parent="1" vertex="1">
                    <mxGeometry x="2390" y="580" width="120" height="40" as="geometry"/>
                </mxCell>
                <mxCell id="218" value="helm_gw_webhooks" style="rounded=1;whiteSpace=wrap;html=1;fillColor=#049B4A;" parent="1" vertex="1">
                    <mxGeometry x="2390" y="530" width="120" height="40" as="geometry"/>
                </mxCell>
                <mxCell id="219" value="helm_gw_student" style="rounded=1;whiteSpace=wrap;html=1;fillColor=#049B4A;" parent="1" vertex="1">
                    <mxGeometry x="2390" y="480" width="120" height="40" as="geometry"/>
                </mxCell>
                <mxCell id="220" value="helm_gw_recruiter" style="rounded=1;whiteSpace=wrap;html=1;fillColor=#049B4A;" parent="1" vertex="1">
                    <mxGeometry x="2390" y="430" width="120" height="40" as="geometry"/>
                </mxCell>
                <mxCell id="221" value="helm_gw_advisor" style="rounded=1;whiteSpace=wrap;html=1;fillColor=#049B4A;" parent="1" vertex="1">
                    <mxGeometry x="2390" y="380" width="120" height="40" as="geometry"/>
                </mxCell>
                <mxCell id="222" value="helm_skill" style="rounded=1;whiteSpace=wrap;html=1;fillColor=#049B4A;" parent="1" vertex="1">
                    <mxGeometry x="2390" y="980" width="120" height="40" as="geometry"/>
                </mxCell>
                <mxCell id="223" value="helm_location" style="rounded=1;whiteSpace=wrap;html=1;fillColor=#049B4A;" parent="1" vertex="1">
                    <mxGeometry x="2390" y="780" width="120" height="40" as="geometry"/>
                </mxCell>
                <mxCell id="224" value="helm_major" style="rounded=1;whiteSpace=wrap;html=1;fillColor=#049B4A;" parent="1" vertex="1">
                    <mxGeometry x="2390" y="830" width="120" height="40" as="geometry"/>
                </mxCell>
                <mxCell id="225" value="helm_notifier" style="rounded=1;whiteSpace=wrap;html=1;fillColor=#049B4A;" parent="1" vertex="1">
                    <mxGeometry x="2390" y="880" width="120" height="40" as="geometry"/>
                </mxCell>
                <mxCell id="226" value="helm_program" style="rounded=1;whiteSpace=wrap;html=1;fillColor=#049B4A;" parent="1" vertex="1">
                    <mxGeometry x="2390" y="930" width="120" height="40" as="geometry"/>
                </mxCell>
                <mxCell id="227" value="helm_university" style="rounded=1;whiteSpace=wrap;html=1;fillColor=#049B4A;" parent="1" vertex="1">
                    <mxGeometry x="2390" y="1030" width="120" height="40" as="geometry"/>
                </mxCell>
                <mxCell id="228" value="helm_user" style="rounded=1;whiteSpace=wrap;html=1;fillColor=#049B4A;" parent="1" vertex="1">
                    <mxGeometry x="2390" y="1080" width="120" height="40" as="geometry"/>
                </mxCell>
                <mxCell id="245" value="&lt;font style=&quot;font-size: 12px&quot;&gt;push Umbrella Helm stable artifact&lt;/font&gt;" style="edgeStyle=orthogonalEdgeStyle;rounded=1;orthogonalLoop=1;jettySize=auto;html=1;exitX=0.5;exitY=0;exitDx=0;exitDy=0;fillColor=#1ba1e2;strokeColor=#3FB1E5;" parent="1" source="232" target="148" edge="1">
                    <mxGeometry x="0.0699" y="120" relative="1" as="geometry">
                        <mxPoint x="2097" y="126" as="targetPoint"/>
                        <Array as="points">
                            <mxPoint x="2600" y="730"/>
                            <mxPoint x="2600" y="150"/>
                            <mxPoint x="2096" y="150"/>
                        </Array>
                        <mxPoint x="-120" y="-120" as="offset"/>
                    </mxGeometry>
                </mxCell>
                <mxCell id="232" value="helm_umbrella" style="rounded=1;whiteSpace=wrap;html=1;fillColor=#049B4A;" parent="1" vertex="1">
                    <mxGeometry x="2548" y="730" width="120" height="40" as="geometry"/>
                </mxCell>
                <mxCell id="251" value="Build docker&amp;nbsp;" style="text;html=1;strokeColor=none;fillColor=none;align=center;verticalAlign=middle;whiteSpace=wrap;rounded=0;" parent="1" vertex="1">
                    <mxGeometry x="1070" y="270" width="40" height="20" as="geometry"/>
                </mxCell>
                <mxCell id="252" value="Default workflow (feature branch merged to master)" style="text;html=1;align=center;verticalAlign=middle;resizable=0;points=[];autosize=1;fontSize=16;" parent="1" vertex="1">
                    <mxGeometry x="10" y="620" width="380" height="20" as="geometry"/>
                </mxCell>
                <mxCell id="253" value="Hotfix workflow" style="text;html=1;align=center;verticalAlign=middle;resizable=0;points=[];autosize=1;fontSize=16;" parent="1" vertex="1">
                    <mxGeometry x="30" y="1484" width="120" height="20" as="geometry"/>
                </mxCell>
                <mxCell id="258" value="" style="edgeStyle=none;rounded=0;orthogonalLoop=1;jettySize=auto;html=1;" parent="1" source="259" target="261" edge="1">
                    <mxGeometry relative="1" as="geometry"/>
                </mxCell>
                <mxCell id="259" value="checkout" style="rounded=1;whiteSpace=wrap;html=1;fillColor=#049B4A;" parent="1" vertex="1">
                    <mxGeometry x="130" y="1534" width="120" height="40" as="geometry"/>
                </mxCell>
                <mxCell id="260" value="" style="edgeStyle=none;rounded=0;orthogonalLoop=1;jettySize=auto;html=1;" parent="1" source="261" target="263" edge="1">
                    <mxGeometry relative="1" as="geometry"/>
                </mxCell>
                <mxCell id="261" value="dependencies" style="rounded=1;whiteSpace=wrap;html=1;fillColor=#049B4A;" parent="1" vertex="1">
                    <mxGeometry x="290" y="1534" width="120" height="40" as="geometry"/>
                </mxCell>
                <mxCell id="262" value="" style="edgeStyle=none;rounded=0;orthogonalLoop=1;jettySize=auto;html=1;" parent="1" source="263" target="264" edge="1">
                    <mxGeometry relative="1" as="geometry"/>
                </mxCell>
                <mxCell id="263" value="build" style="rounded=1;whiteSpace=wrap;html=1;fillColor=#049B4A;" parent="1" vertex="1">
                    <mxGeometry x="450" y="1534" width="120" height="40" as="geometry"/>
                </mxCell>
                <mxCell id="267" value="" style="edgeStyle=orthogonalEdgeStyle;rounded=0;orthogonalLoop=1;jettySize=auto;html=1;fontSize=16;" parent="1" source="264" target="266" edge="1">
                    <mxGeometry relative="1" as="geometry"/>
                </mxCell>
                <mxCell id="264" value="tests" style="rounded=1;whiteSpace=wrap;html=1;fillColor=#049B4A;" parent="1" vertex="1">
                    <mxGeometry x="610" y="1534" width="120" height="40" as="geometry"/>
                </mxCell>
                <mxCell id="265" value="master_branch" style="verticalLabelPosition=bottom;html=1;verticalAlign=top;align=center;strokeColor=none;fillColor=#00BEF2;shape=mxgraph.azure.git_repository;" parent="1" vertex="1">
                    <mxGeometry x="40" y="1529" width="50" height="50" as="geometry"/>
                </mxCell>
                <mxCell id="316" value="" style="edgeStyle=orthogonalEdgeStyle;rounded=0;orthogonalLoop=1;jettySize=auto;html=1;fontSize=16;entryX=0;entryY=0.5;entryDx=0;entryDy=0;" parent="1" source="266" target="269" edge="1">
                    <mxGeometry relative="1" as="geometry">
                        <mxPoint x="980" y="1554" as="targetPoint"/>
                    </mxGeometry>
                </mxCell>
                <mxCell id="266" value="release" style="rounded=1;whiteSpace=wrap;html=1;fillColor=#049B4A;" parent="1" vertex="1">
                    <mxGeometry x="770" y="1534" width="120" height="40" as="geometry"/>
                </mxCell>
                <mxCell id="319" value="" style="edgeStyle=orthogonalEdgeStyle;rounded=0;orthogonalLoop=1;jettySize=auto;html=1;fontSize=16;" parent="1" source="268" target="317" edge="1">
                    <mxGeometry relative="1" as="geometry"/>
                </mxCell>
                <mxCell id="268" value="" style="rounded=1;whiteSpace=wrap;html=1;fillColor=#049B4A;strokeColor=#F0F0F0;" parent="1" vertex="1">
                    <mxGeometry x="1080" y="1164" width="140" height="780" as="geometry"/>
                </mxCell>
                <mxCell id="269" value="" style="rounded=1;whiteSpace=wrap;html=1;fillColor=#049B4A;strokeColor=#F0F0F0;" parent="1" vertex="1">
                    <mxGeometry x="920" y="1164" width="140" height="780" as="geometry"/>
                </mxCell>
                <mxCell id="270" value="" style="edgeStyle=none;rounded=0;orthogonalLoop=1;jettySize=auto;html=1;" parent="1" source="271" target="300" edge="1">
                    <mxGeometry relative="1" as="geometry"/>
                </mxCell>
                <mxCell id="271" value="docker_job-role" style="rounded=1;whiteSpace=wrap;html=1;fillColor=#049B4A;" parent="1" vertex="1">
                    <mxGeometry x="930" y="1534" width="120" height="40" as="geometry"/>
                </mxCell>
                <mxCell id="272" value="" style="edgeStyle=none;rounded=0;orthogonalLoop=1;jettySize=auto;html=1;" parent="1" source="273" target="301" edge="1">
                    <mxGeometry relative="1" as="geometry"/>
                </mxCell>
                <mxCell id="273" value="docker_company" style="rounded=1;whiteSpace=wrap;html=1;fillColor=#049B4A;" parent="1" vertex="1">
                    <mxGeometry x="930" y="1484" width="120" height="40" as="geometry"/>
                </mxCell>
                <mxCell id="274" value="" style="edgeStyle=none;rounded=0;orthogonalLoop=1;jettySize=auto;html=1;" parent="1" source="275" target="302" edge="1">
                    <mxGeometry relative="1" as="geometry"/>
                </mxCell>
                <mxCell id="275" value="docker_candidate" style="rounded=1;whiteSpace=wrap;html=1;fillColor=#049B4A;" parent="1" vertex="1">
                    <mxGeometry x="930" y="1434" width="120" height="40" as="geometry"/>
                </mxCell>
                <mxCell id="276" value="" style="edgeStyle=none;rounded=0;orthogonalLoop=1;jettySize=auto;html=1;" parent="1" source="277" target="303" edge="1">
                    <mxGeometry relative="1" as="geometry"/>
                </mxCell>
                <mxCell id="277" value="docker_campaign" style="rounded=1;whiteSpace=wrap;html=1;fillColor=#049B4A;" parent="1" vertex="1">
                    <mxGeometry x="930" y="1384" width="120" height="40" as="geometry"/>
                </mxCell>
                <mxCell id="278" value="" style="edgeStyle=none;rounded=0;orthogonalLoop=1;jettySize=auto;html=1;" parent="1" source="279" target="304" edge="1">
                    <mxGeometry relative="1" as="geometry"/>
                </mxCell>
                <mxCell id="279" value="docker_gw_webhooks" style="rounded=1;whiteSpace=wrap;html=1;fillColor=#049B4A;" parent="1" vertex="1">
                    <mxGeometry x="930" y="1334" width="120" height="40" as="geometry"/>
                </mxCell>
                <mxCell id="280" value="" style="edgeStyle=none;rounded=0;orthogonalLoop=1;jettySize=auto;html=1;" parent="1" source="281" target="305" edge="1">
                    <mxGeometry relative="1" as="geometry"/>
                </mxCell>
                <mxCell id="281" value="docker_gw_student" style="rounded=1;whiteSpace=wrap;html=1;fillColor=#049B4A;" parent="1" vertex="1">
                    <mxGeometry x="930" y="1284" width="120" height="40" as="geometry"/>
                </mxCell>
                <mxCell id="282" value="" style="edgeStyle=none;rounded=0;orthogonalLoop=1;jettySize=auto;html=1;" parent="1" source="283" target="306" edge="1">
                    <mxGeometry relative="1" as="geometry"/>
                </mxCell>
                <mxCell id="283" value="docker_gw_recruiter" style="rounded=1;whiteSpace=wrap;html=1;fillColor=#049B4A;" parent="1" vertex="1">
                    <mxGeometry x="930" y="1234" width="120" height="40" as="geometry"/>
                </mxCell>
                <mxCell id="284" value="" style="edgeStyle=none;rounded=0;orthogonalLoop=1;jettySize=auto;html=1;" parent="1" source="285" target="307" edge="1">
                    <mxGeometry relative="1" as="geometry"/>
                </mxCell>
                <mxCell id="285" value="docker_gw_advisor" style="rounded=1;whiteSpace=wrap;html=1;fillColor=#049B4A;" parent="1" vertex="1">
                    <mxGeometry x="930" y="1184" width="120" height="40" as="geometry"/>
                </mxCell>
                <mxCell id="286" value="" style="edgeStyle=none;rounded=0;orthogonalLoop=1;jettySize=auto;html=1;" parent="1" source="287" target="308" edge="1">
                    <mxGeometry relative="1" as="geometry"/>
                </mxCell>
                <mxCell id="287" value="docker_skill" style="rounded=1;whiteSpace=wrap;html=1;fillColor=#049B4A;" parent="1" vertex="1">
                    <mxGeometry x="930" y="1784" width="120" height="40" as="geometry"/>
                </mxCell>
                <mxCell id="288" value="" style="edgeStyle=none;rounded=0;orthogonalLoop=1;jettySize=auto;html=1;" parent="1" source="289" target="309" edge="1">
                    <mxGeometry relative="1" as="geometry"/>
                </mxCell>
                <mxCell id="289" value="docker_location" style="rounded=1;whiteSpace=wrap;html=1;fillColor=#049B4A;" parent="1" vertex="1">
                    <mxGeometry x="930" y="1584" width="120" height="40" as="geometry"/>
                </mxCell>
                <mxCell id="290" value="" style="edgeStyle=none;rounded=0;orthogonalLoop=1;jettySize=auto;html=1;" parent="1" source="291" target="310" edge="1">
                    <mxGeometry relative="1" as="geometry"/>
                </mxCell>
                <mxCell id="291" value="docker_major" style="rounded=1;whiteSpace=wrap;html=1;fillColor=#049B4A;" parent="1" vertex="1">
                    <mxGeometry x="930" y="1634" width="120" height="40" as="geometry"/>
                </mxCell>
                <mxCell id="292" value="" style="edgeStyle=none;rounded=0;orthogonalLoop=1;jettySize=auto;html=1;" parent="1" source="293" target="311" edge="1">
                    <mxGeometry relative="1" as="geometry"/>
                </mxCell>
                <mxCell id="293" value="docker_notifier" style="rounded=1;whiteSpace=wrap;html=1;fillColor=#049B4A;" parent="1" vertex="1">
                    <mxGeometry x="930" y="1684" width="120" height="40" as="geometry"/>
                </mxCell>
                <mxCell id="294" value="" style="edgeStyle=none;rounded=0;orthogonalLoop=1;jettySize=auto;html=1;" parent="1" source="295" target="312" edge="1">
                    <mxGeometry relative="1" as="geometry"/>
                </mxCell>
                <mxCell id="295" value="docker_program" style="rounded=1;whiteSpace=wrap;html=1;fillColor=#049B4A;" parent="1" vertex="1">
                    <mxGeometry x="930" y="1734" width="120" height="40" as="geometry"/>
                </mxCell>
                <mxCell id="296" value="" style="edgeStyle=none;rounded=0;orthogonalLoop=1;jettySize=auto;html=1;" parent="1" source="297" target="313" edge="1">
                    <mxGeometry relative="1" as="geometry"/>
                </mxCell>
                <mxCell id="297" value="docker_university" style="rounded=1;whiteSpace=wrap;html=1;fillColor=#049B4A;" parent="1" vertex="1">
                    <mxGeometry x="930" y="1834" width="120" height="40" as="geometry"/>
                </mxCell>
                <mxCell id="298" value="" style="edgeStyle=none;rounded=0;orthogonalLoop=1;jettySize=auto;html=1;" parent="1" source="299" target="314" edge="1">
                    <mxGeometry relative="1" as="geometry"/>
                </mxCell>
                <mxCell id="299" value="docker_user" style="rounded=1;whiteSpace=wrap;html=1;fillColor=#049B4A;" parent="1" vertex="1">
                    <mxGeometry x="930" y="1884" width="120" height="40" as="geometry"/>
                </mxCell>
                <mxCell id="300" value="helm_job-role" style="rounded=1;whiteSpace=wrap;html=1;fillColor=#049B4A;" parent="1" vertex="1">
                    <mxGeometry x="1091" y="1534" width="120" height="40" as="geometry"/>
                </mxCell>
                <mxCell id="301" value="helm_company" style="rounded=1;whiteSpace=wrap;html=1;fillColor=#049B4A;" parent="1" vertex="1">
                    <mxGeometry x="1091" y="1484" width="120" height="40" as="geometry"/>
                </mxCell>
                <mxCell id="302" value="helm_candidate" style="rounded=1;whiteSpace=wrap;html=1;fillColor=#049B4A;" parent="1" vertex="1">
                    <mxGeometry x="1091" y="1434" width="120" height="40" as="geometry"/>
                </mxCell>
                <mxCell id="303" value="helm_campaign" style="rounded=1;whiteSpace=wrap;html=1;fillColor=#049B4A;" parent="1" vertex="1">
                    <mxGeometry x="1091" y="1384" width="120" height="40" as="geometry"/>
                </mxCell>
                <mxCell id="304" value="helm_gw_webhooks" style="rounded=1;whiteSpace=wrap;html=1;fillColor=#049B4A;" parent="1" vertex="1">
                    <mxGeometry x="1091" y="1334" width="120" height="40" as="geometry"/>
                </mxCell>
                <mxCell id="305" value="helm_gw_student" style="rounded=1;whiteSpace=wrap;html=1;fillColor=#049B4A;" parent="1" vertex="1">
                    <mxGeometry x="1091" y="1284" width="120" height="40" as="geometry"/>
                </mxCell>
                <mxCell id="306" value="helm_gw_recruiter" style="rounded=1;whiteSpace=wrap;html=1;fillColor=#049B4A;" parent="1" vertex="1">
                    <mxGeometry x="1091" y="1234" width="120" height="40" as="geometry"/>
                </mxCell>
                <mxCell id="307" value="helm_gw_advisor" style="rounded=1;whiteSpace=wrap;html=1;fillColor=#049B4A;" parent="1" vertex="1">
                    <mxGeometry x="1091" y="1184" width="120" height="40" as="geometry"/>
                </mxCell>
                <mxCell id="308" value="helm_skill" style="rounded=1;whiteSpace=wrap;html=1;fillColor=#049B4A;" parent="1" vertex="1">
                    <mxGeometry x="1091" y="1784" width="120" height="40" as="geometry"/>
                </mxCell>
                <mxCell id="309" value="helm_location" style="rounded=1;whiteSpace=wrap;html=1;fillColor=#049B4A;" parent="1" vertex="1">
                    <mxGeometry x="1091" y="1584" width="120" height="40" as="geometry"/>
                </mxCell>
                <mxCell id="310" value="helm_major" style="rounded=1;whiteSpace=wrap;html=1;fillColor=#049B4A;" parent="1" vertex="1">
                    <mxGeometry x="1091" y="1634" width="120" height="40" as="geometry"/>
                </mxCell>
                <mxCell id="311" value="helm_notifier" style="rounded=1;whiteSpace=wrap;html=1;fillColor=#049B4A;" parent="1" vertex="1">
                    <mxGeometry x="1091" y="1684" width="120" height="40" as="geometry"/>
                </mxCell>
                <mxCell id="312" value="helm_program" style="rounded=1;whiteSpace=wrap;html=1;fillColor=#049B4A;" parent="1" vertex="1">
                    <mxGeometry x="1091" y="1734" width="120" height="40" as="geometry"/>
                </mxCell>
                <mxCell id="313" value="helm_university" style="rounded=1;whiteSpace=wrap;html=1;fillColor=#049B4A;" parent="1" vertex="1">
                    <mxGeometry x="1091" y="1834" width="120" height="40" as="geometry"/>
                </mxCell>
                <mxCell id="314" value="helm_user" style="rounded=1;whiteSpace=wrap;html=1;fillColor=#049B4A;" parent="1" vertex="1">
                    <mxGeometry x="1091" y="1884" width="120" height="40" as="geometry"/>
                </mxCell>
                <mxCell id="317" value="helm_umbrella" style="rounded=1;whiteSpace=wrap;html=1;fillColor=#049B4A;" parent="1" vertex="1">
                    <mxGeometry x="1241" y="1534" width="120" height="40" as="geometry"/>
                </mxCell>
                <mxCell id="320" value="" style="edgeStyle=none;rounded=0;orthogonalLoop=1;jettySize=auto;html=1;entryX=0;entryY=0.5;entryDx=0;entryDy=0;exitX=1;exitY=0.5;exitDx=0;exitDy=0;" parent="1" source="317" target="322" edge="1">
                    <mxGeometry relative="1" as="geometry">
                        <mxPoint x="1361.81" y="1554" as="sourcePoint"/>
                    </mxGeometry>
                </mxCell>
                <mxCell id="321" style="edgeStyle=none;rounded=0;orthogonalLoop=1;jettySize=auto;html=1;exitX=1;exitY=0.5;exitDx=0;exitDy=0;entryX=0;entryY=0.5;entryDx=0;entryDy=0;" parent="1" source="317" target="324" edge="1">
                    <mxGeometry relative="1" as="geometry">
                        <mxPoint x="1361.81" y="1554" as="sourcePoint"/>
                    </mxGeometry>
                </mxCell>
                <mxCell id="322" value="deploy_stage" style="rounded=1;whiteSpace=wrap;html=1;fillColor=#049B4A;" parent="1" vertex="1">
                    <mxGeometry x="1401.62" y="1494" width="120" height="40" as="geometry"/>
                </mxCell>
                <mxCell id="323" value="" style="edgeStyle=none;rounded=0;orthogonalLoop=1;jettySize=auto;html=1;" parent="1" source="324" target="326" edge="1">
                    <mxGeometry relative="1" as="geometry"/>
                </mxCell>
                <mxCell id="324" value="deploy_test_prod" style="rounded=1;whiteSpace=wrap;html=1;fillColor=#049B4A;" parent="1" vertex="1">
                    <mxGeometry x="1400.81" y="1574" width="120" height="40" as="geometry"/>
                </mxCell>
                <mxCell id="325" value="" style="edgeStyle=none;rounded=0;orthogonalLoop=1;jettySize=auto;html=1;" parent="1" source="326" target="328" edge="1">
                    <mxGeometry relative="1" as="geometry"/>
                </mxCell>
                <mxCell id="326" value="run_tests" style="rounded=1;whiteSpace=wrap;html=1;fillColor=#049B4A;" parent="1" vertex="1">
                    <mxGeometry x="1560" y="1574" width="120" height="40" as="geometry"/>
                </mxCell>
                <mxCell id="327" value="" style="edgeStyle=none;rounded=0;orthogonalLoop=1;jettySize=auto;html=1;" parent="1" source="328" target="329" edge="1">
                    <mxGeometry relative="1" as="geometry"/>
                </mxCell>
                <mxCell id="328" value="pending_approval" style="rounded=1;whiteSpace=wrap;html=1;fillColor=#049B4A;" parent="1" vertex="1">
                    <mxGeometry x="1720" y="1574" width="120" height="40" as="geometry"/>
                </mxCell>
                <mxCell id="329" value="deploy_prod" style="rounded=1;whiteSpace=wrap;html=1;fillColor=#049B4A;" parent="1" vertex="1">
                    <mxGeometry x="1880" y="1574" width="120" height="40" as="geometry"/>
                </mxCell>
            </root>
        </mxGraphModel>
    </diagram>
</mxfile>